<?xml version="1.0" encoding="utf-8"?>
<svg id="master-artboard" viewBox="0 0 50 30" version="1.1" xmlns="http://www.w3.org/2000/svg" x="0px" y="0px" style="enable-background:new 0 0 336 235.2;" width="50px" height="30px"><rect id="ee-background" x="0" y="0" width="50" height="30" style="fill: white; fill-opacity: 0; pointer-events: none;"/><g transform="matrix(0.07449907809495926, 0, 0, 0.07449907809495926, 6.483398596445724, -0.3895157078901974)"><g transform="matrix(0.002833532867953182, -1.6454138755798342, 1.6454138755798342, 0.002833532867953182, -13.309485453907087, 885.2062377929688)"><path d="M 430.8999938964844 341.6000061035156 L 430.8999938964844 346.79998779296875 L 430.8999938964844 352.1000061035156 L 436.1000061035156 352.1000061035156 L 436.1000061035156 357.3999938964844 L 436.1000061035156 362.70001220703125 L 441.3999938964844 362.70001220703125 L 441.3999938964844 357.3999938964844 L 441.3999938964844 352.1000061035156 L 446.6000061035156 352.1000061035156 L 446.6000061035156 346.79998779296875 L 446.6000061035156 341.6000061035156 L 451.8999938964844 341.6000061035156 L 451.8999938964844 336.29998779296875 L 425.6000061035156 336.29998779296875 L 425.6000061035156 341.6000061035156 Z" class="st0" style="fill: rgb(0, 0, 0);" transform="matrix(0.6327252893331751, 0, 0, 0.6327252893331751, 133.9631761125368, 32.69067390600373)"/><path d="M 451.899994 288.899994 H 457.199994 V 294.199994 H 451.899994 V 288.899994 Z" class="st1" style="fill: rgb(255, 222, 174);" transform="matrix(0.6819150664365046, 1.7617324796844135e-19, -1.7617324796844135e-19, 0.6819150664365046, 113.02805777565739, 16.14816913068975)"/><path d="M 420.299988 288.899994 H 425.599988 V 294.199994 H 420.299988 V 288.899994 Z" class="st1" style="fill: rgb(255, 222, 174);" transform="matrix(0.6819150664365046, 1.7617324796844135e-19, -1.7617324796844135e-19, 0.6819150664365046, 113.02805777565739, 16.14816913068975)"/><path d="M 425.600006 331 H 451.900005 V 336.3 H 425.600006 V 331 Z" class="st1" style="fill: rgb(255, 222, 174);" transform="matrix(0.6819150664365046, 1.7617324796844135e-19, -1.7617324796844135e-19, 0.6819150664365046, 113.02805777565739, 16.14816913068975)"/><path d="M 457.20001220703125 331 L 457.20001220703125 325.79998779296875 L 457.20001220703125 320.5 L 420.29998779296875 320.5 L 420.29998779296875 325.79998779296875 L 420.29998779296875 331 Z" class="st1" style="fill: rgb(255, 222, 174);" transform="matrix(0.6819150664365046, 1.7617324796844135e-19, -1.7617324796844135e-19, 0.6819150664365046, 113.02805777565739, 16.14816913068975)"/><path d="M 462.5 320.5 L 462.5 315.20001220703125 L 462.5 310 L 415.1000061035156 310 L 415.1000061035156 315.20001220703125 L 415.1000061035156 320.5 Z" class="st1" style="fill: rgb(255, 222, 174);" transform="matrix(0.6819150664365046, 1.7617324796844135e-19, -1.7617324796844135e-19, 0.6819150664365046, 113.02805777565739, 16.14816913068975)"/><path d="M 467.70001220703125 310 L 467.70001220703125 304.70001220703125 L 467.70001220703125 299.3999938964844 L 409.79998779296875 299.3999938964844 L 409.79998779296875 304.70001220703125 L 409.79998779296875 310 Z" class="st1" style="fill: rgb(255, 222, 174);" transform="matrix(0.6819150664365046, 1.7617324796844135e-19, -1.7617324796844135e-19, 0.6819150664365046, 113.02805777565739, 16.14816913068975)"/><path d="M 415.100006 294.100006 H 430.900006 V 299.400006 H 415.100006 V 294.100006 Z" class="st1" style="fill: rgb(255, 222, 174);" transform="matrix(0.6819150664365046, 1.7617324796844135e-19, -1.7617324796844135e-19, 0.6819150664365046, 113.02805777565739, 16.14816913068975)"/><path d="M 446.600006 294.100006 H 462.400006 V 299.400006 H 446.600006 V 294.100006 Z" class="st1" style="fill: rgb(255, 222, 174);" transform="matrix(0.6819150664365046, 1.7617324796844135e-19, -1.7617324796844135e-19, 0.6819150664365046, 113.02805777565739, 16.14816913068975)"/><path d="M 441.3999938964844 336.29998779296875 L 446.6000061035156 336.29998779296875 L 451.8999938964844 336.29998779296875 L 451.8999938964844 331 L 446.6000061035156 331 L 441.3999938964844 331 Z" class="st2" style="fill: rgb(255, 179, 71);" transform="matrix(0.6819150664365046, 1.7617324796844135e-19, -1.7617324796844135e-19, 0.6819150664365046, 113.02805777565739, 16.14816913068975)"/><path d="M 441.3999938964844 341.6000061035156 L 446.6000061035156 341.6000061035156 L 451.8999938964844 341.6000061035156 L 451.8999938964844 336.29998779296875 L 446.6000061035156 336.29998779296875 L 441.3999938964844 336.29998779296875 Z" class="st3" style="fill: rgb(0, 0, 0);" transform="matrix(0.6634202257241155, 1.761732596161992e-19, -1.761732596161992e-19, 0.6634202257241155, 121.19165607934086, 22.368011716516246)"/><path d="M 451.8999938964844 331 L 457.20001220703125 331 L 457.20001220703125 325.79998779296875 L 457.20001220703125 320.5 L 451.8999938964844 320.5 L 446.6000061035156 320.5 L 446.6000061035156 325.79998779296875 L 446.6000061035156 331 Z" class="st2" style="fill: rgb(255, 179, 71);" transform="matrix(0.6819150664365046, 1.7617324796844135e-19, -1.7617324796844135e-19, 0.6819150664365046, 113.02805777565739, 16.14816913068975)"/><path d="M 457.20001220703125 320.5 L 462.5 320.5 L 462.5 315.20001220703125 L 462.5 310 L 457.20001220703125 310 L 451.8999938964844 310 L 451.8999938964844 315.20001220703125 L 451.8999938964844 320.5 Z" class="st2" style="fill: rgb(255, 179, 71);" transform="matrix(0.6819150664365046, 1.7617324796844135e-19, -1.7617324796844135e-19, 0.6819150664365046, 113.02805777565739, 16.14816913068975)"/><path d="M 462.5 310 L 467.70001220703125 310 L 467.70001220703125 304.70001220703125 L 467.70001220703125 299.3999938964844 L 462.5 299.3999938964844 L 457.20001220703125 299.3999938964844 L 457.20001220703125 304.70001220703125 L 457.20001220703125 310 Z" class="st2" style="fill: rgb(255, 179, 71);" transform="matrix(0.6819150664365046, 1.7617324796844135e-19, -1.7617324796844135e-19, 0.6819150664365046, 113.02805777565739, 16.14816913068975)"/><path d="M 457.200012 294.100006 H 462.500012 V 299.400006 H 457.200012 V 294.100006 Z" class="st2" style="fill: rgb(255, 179, 71);" transform="matrix(0.6819150664365046, 1.7617324796844135e-19, -1.7617324796844135e-19, 0.6819150664365046, 113.02805777565739, 16.14816913068975)"/><path d="M 451.899994 288.899994 H 457.199994 V 294.199994 H 451.899994 V 288.899994 Z" class="st2" style="fill: rgb(255, 179, 71);" transform="matrix(0.6819150664365046, 1.7617324796844135e-19, -1.7617324796844135e-19, 0.6819150664365046, 113.02805777565739, 16.14816913068975)"/><path d="M 425.600006 294.100006 H 430.900006 V 299.400006 H 425.600006 V 294.100006 Z" class="st2" style="fill: rgb(255, 179, 71);" transform="matrix(0.6819150664365046, 1.7617324796844135e-19, -1.7617324796844135e-19, 0.6819150664365046, 113.02805777565739, 16.14816913068975)"/><path d="M 420.299988 288.899994 H 425.599988 V 294.199994 H 420.299988 V 288.899994 Z" class="st2" style="fill: rgb(255, 179, 71);" transform="matrix(0.6819150664365046, 1.7617324796844135e-19, -1.7617324796844135e-19, 0.6819150664365046, 113.02805777565739, 16.14816913068975)"/><path d="M 446.6000061035156 352.1000061035156 L 446.6000061035156 346.79998779296875 L 446.6000061035156 341.6000061035156 L 441.3999938964844 341.6000061035156 L 441.3999938964844 346.79998779296875 L 441.3999938964844 352.1000061035156 Z" class="st3" style="fill: rgb(0, 0, 0);" transform="matrix(0.8181692253969978, 0, 0, 0.8181692253969978, 52.885199796042826, -29.91932636601352)"/><path d="M 441.3999938964844 362.70001220703125 L 441.3999938964844 357.3999938964844 L 441.3999938964844 352.1000061035156 L 436.1000061035156 352.1000061035156 L 436.1000061035156 357.3999938964844 L 436.1000061035156 362.70001220703125 Z" class="st3" style="fill: rgb(87, 141, 178);" transform="matrix(0.6819150664365046, 1.7617324796844135e-19, -1.7617324796844135e-19, 0.6819150664365046, 113.02805777565739, 16.14816913068975)"/><path d="M 462.5 288.8999938964844 L 462.5 294.1000061035156 L 467.70001220703125 294.1000061035156 L 467.70001220703125 299.3999938964844 L 473 299.3999938964844 L 473 115.4000015258789 L 467.70001220703125 115.4000015258789 L 462.5 115.4000015258789 L 462.5 115.4000015258789 L 457.20001220703125 115.4000015258789 L 457.20001220703125 288.8999938964844 Z" class="st3" style="fill: rgb(232, 184, 40);" transform="matrix(0.6819150664365046, 1.7617324796844135e-19, -1.7617324796844135e-19, 0.6819150664365046, 113.02805777565739, 16.14816913068975)"/><path d="M 415 288.8999938964844 L 415 294.1000061035156 L 409.79998779296875 294.1000061035156 L 409.79998779296875 299.3999938964844 L 404.5 299.3999938964844 L 404.5 115.4000015258789 L 409.79998779296875 115.4000015258789 L 415 115.4000015258789 L 415 115.4000015258789 L 420.29998779296875 115.4000015258789 L 420.29998779296875 288.8999938964844 Z" class="st0" style="fill: rgb(232, 184, 40);" transform="matrix(0.6819150664365046, 1.7617324796844135e-19, -1.7617324796844135e-19, 0.6819150664365046, 113.02805777565739, 16.14816913068975)"/><path d="M 430.8999938964844 288.8999938964844 L 430.8999938964844 294.1000061035156 L 436.1000061035156 294.1000061035156 L 441.3999938964844 294.1000061035156 L 446.70001220703125 294.1000061035156 L 446.70001220703125 288.8999938964844 L 452 288.8999938964844 L 452 115.4000015258789 L 446.70001220703125 115.4000015258789 L 441.3999938964844 115.4000015258789 L 436.1000061035156 115.4000015258789 L 430.8999938964844 115.4000015258789 L 430.8999938964844 115.4000015258789 L 425.6000061035156 115.4000015258789 L 425.6000061035156 288.8999938964844 Z" class="st0" style="fill: rgb(232, 184, 40);" transform="matrix(0.6819150664365046, 1.7617324796844135e-19, -1.7617324796844135e-19, 0.6819150664365046, 113.02805777565739, 16.14816913068975)"/><path d="M 441.399994 283.600006 H 446.699994 V 288.900006 H 441.399994 V 283.600006 Z" class="st3" style="fill: rgb(87, 141, 178);" transform="matrix(0.6819150664365046, 1.7617324796844135e-19, -1.7617324796844135e-19, 0.6819150664365046, 113.02805777565739, 16.14816913068975)"/><path d="M 436.1000061035156 294.1000061035156 L 441.3999938964844 294.1000061035156 L 446.6000061035156 294.1000061035156 L 446.6000061035156 288.8999938964844 L 441.3999938964844 288.8999938964844 L 436.1000061035156 288.8999938964844 L 430.79998779296875 288.8999938964844 L 430.79998779296875 294.1000061035156 Z" class="st3" style="fill: rgb(232, 184, 40);" transform="matrix(1.4820684219601936, -3.5234656951498045e-19, 3.5234656951498045e-19, 1.4820684219601936, -236.0542532687647, -222.17234706341483)"/><path d="M 446.600006 120.699997 H 451.900006 V 288.899994 H 446.600006 V 120.699997 Z" class="st3" style="fill: rgb(232, 184, 40);" transform="matrix(0.6819150664365046, 1.7617324796844135e-19, -1.7617324796844135e-19, 0.6819150664365046, 113.02805777565739, 16.14816913068975)"/><path d="M 404.5 104.9000015258789 L 404.5 110.19999694824219 L 404.5 115.4000015258789 L 473 115.4000015258789 L 473 110.19999694824219 L 473 104.9000015258789 L 473 99.5999984741211 L 404.5 99.5999984741211 Z" class="st4" style="fill: rgb(113, 113, 117);" transform="matrix(0.6819150664365046, 1.7617324796844135e-19, -1.7617324796844135e-19, 0.6819150664365046, 113.02805777565739, 16.14816913068975)"/><path d="M 446.70001220703125 104.9000015258789 L 446.70001220703125 110.19999694824219 L 446.70001220703125 115.4000015258789 L 473 115.4000015258789 L 473 110.19999694824219 L 473 104.9000015258789 L 473 99.5999984741211 L 446.70001220703125 99.5999984741211 Z" class="st5" style="fill: rgb(91, 91, 95);" transform="matrix(0.6819150664365046, 1.7617324796844135e-19, -1.7617324796844135e-19, 0.6819150664365046, 113.02805777565739, 16.14816913068975)"/><path d="M 420.29998779296875 115.4000015258789 L 430.8999938964844 115.4000015258789 L 430.8999938964844 99.5999984741211 L 420.29998779296875 99.5999984741211 L 415.1000061035156 99.5999984741211 L 415.1000061035156 115.4000015258789 Z" class="st6" style="fill: rgb(173, 172, 178);" transform="matrix(0.6819150664365046, 1.7617324796844135e-19, -1.7617324796844135e-19, 0.6819150664365046, 113.02805777565739, 16.14816913068975)"/><path d="M 404.5 99.599998 H 409.8 V 115.399999 H 404.5 V 99.599998 Z" class="st5" style="fill: rgb(91, 91, 95);" transform="matrix(0.6819150664365046, 1.7617324796844135e-19, -1.7617324796844135e-19, 0.6819150664365046, 113.02805777565739, 16.14816913068975)"/><path d="M 473 94.4000015258789 L 473 89.0999984741211 L 473 83.80000305175781 L 473 78.5 L 473 73.30000305175781 L 467.70001220703125 73.30000305175781 L 467.70001220703125 68 L 467.70001220703125 62.70000076293945 L 467.70001220703125 57.5 L 409.79998779296875 57.5 L 409.79998779296875 62.70000076293945 L 409.79998779296875 68 L 409.79998779296875 73.30000305175781 L 404.5 73.30000305175781 L 404.5 78.5 L 404.5 83.80000305175781 L 404.5 89.0999984741211 L 404.5 94.4000015258789 Z" class="st7" style="fill: rgb(183, 94, 118);" transform="matrix(0.6819150664365046, 1.7617324796844135e-19, -1.7617324796844135e-19, 0.6819150664365046, 113.02805777565739, 16.14816913068975)"/><path d="M 430.79998779296875 57.5 L 438.70001220703125 57.5 L 446.6000061035156 57.5 L 454.6000061035156 57.5 L 462.5 57.5 L 462.5 52.20000076293945 L 454.6000061035156 52.20000076293945 L 446.6000061035156 52.20000076293945 L 438.70001220703125 52.20000076293945 L 430.79998779296875 52.20000076293945 L 422.8999938964844 52.20000076293945 L 415 52.20000076293945 L 415 57.5 L 422.8999938964844 57.5 Z" class="st7" style="fill: rgb(183, 94, 118);" transform="matrix(0.6819150664365046, 1.7617324796844135e-19, -1.7617324796844135e-19, 0.6819150664365046, 113.02805777565739, 16.14816913068975)"/><path d="M 446.70001220703125 83.80000305175781 L 446.70001220703125 89.0999984741211 L 446.70001220703125 94.4000015258789 L 473 94.4000015258789 L 473 89.0999984741211 L 473 83.80000305175781 L 473 73.30000305175781 L 446.70001220703125 73.30000305175781 Z" class="st8" style="fill: rgb(163, 75, 105);" transform="matrix(0.6819150664365046, 1.7617324796844135e-19, -1.7617324796844135e-19, 0.6819150664365046, 113.02805777565739, 16.14816913068975)"/><path d="M 446.70001220703125 68 L 446.70001220703125 73.30000305175781 L 446.70001220703125 73.30000305175781 L 467.70001220703125 73.30000305175781 L 467.70001220703125 57.5 L 446.70001220703125 57.5 Z" class="st8" style="fill: rgb(163, 75, 105);" transform="matrix(0.6819150664365046, 1.7617324796844135e-19, -1.7617324796844135e-19, 0.6819150664365046, 113.02805777565739, 16.14816913068975)"/><path d="M 441.3999938964844 62.70000076293945 L 441.3999938964844 68 L 441.3999938964844 73.30000305175781 L 446.70001220703125 73.30000305175781 L 446.70001220703125 68 L 446.70001220703125 62.70000076293945 L 446.70001220703125 57.5 L 441.3999938964844 57.5 Z" class="st8" style="fill: rgb(163, 75, 105);" transform="matrix(0.6819150664365046, 1.7617324796844135e-19, -1.7617324796844135e-19, 0.6819150664365046, 113.02805777565739, 16.14816913068975)"/><path d="M 438.79998779296875 57.5 L 438.79998779296875 57.5 L 462.5 57.5 L 462.5 52.20000076293945 L 438.79998779296875 52.20000076293945 L 438.79998779296875 52.20000076293945 L 436.1000061035156 52.20000076293945 L 436.1000061035156 54 L 436.1000061035156 55.70000076293945 L 436.1000061035156 57.5 Z" class="st8" style="fill: rgb(163, 75, 105);" transform="matrix(0.6819150664365046, 1.7617324796844135e-19, -1.7617324796844135e-19, 0.6819150664365046, 113.02805777565739, 16.14816913068975)"/><path d="M 446.6000061035156 362.70001220703125 L 446.6000061035156 357.3999938964844 L 446.6000061035156 352.1000061035156 L 441.3999938964844 352.1000061035156 L 441.3999938964844 357.3999938964844 L 441.3999938964844 362.70001220703125 Z" class="st9" style="fill: rgb(0, 0, 0);" transform="matrix(0.43639557491607345, 8.80866219930465e-20, -8.80866219930465e-20, 0.43639557491607345, 221.4002710732329, 102.59554835131262)"/><path d="M 451.8999938964844 352.1000061035156 L 451.8999938964844 346.79998779296875 L 451.8999938964844 341.6000061035156 L 446.6000061035156 341.6000061035156 L 446.6000061035156 346.79998779296875 L 446.6000061035156 352.1000061035156 Z" class="st9" style="fill: rgb(0, 0, 0);" transform="matrix(0.4713895348127065, 1.7617326281652e-19, -1.7617326281652e-19, 0.4713895348127065, 207.04864536258304, 88.06361249152121)"/><path d="M 457.20001220703125 341.6000061035156 L 457.20001220703125 336.29998779296875 L 457.20001220703125 331 L 451.8999938964844 331 L 451.8999938964844 336.29998779296875 L 451.8999938964844 341.6000061035156 Z" class="st9" style="fill: rgb(0, 0, 0);" transform="matrix(1.6260543205650921, 3.523464980669743e-19, -3.523464980669743e-19, 1.6260543205650921, -326.509894875139, -292.06814758732105)"/><path d="M 462.5 331 L 462.5 325.79998779296875 L 462.5 320.5 L 457.20001220703125 320.5 L 457.20001220703125 325.79998779296875 L 457.20001220703125 331 Z" class="st10" style="fill: rgb(130, 84, 34);" transform="matrix(0.6819150664365046, 1.7617324796844135e-19, -1.7617324796844135e-19, 0.6819150664365046, 113.02805777565739, 16.14816913068975)"/><path d="M 467.70001220703125 320.5 L 467.70001220703125 315.20001220703125 L 467.70001220703125 310 L 462.5 310 L 462.5 315.20001220703125 L 462.5 320.5 Z" class="st10" style="fill: rgb(130, 84, 34);" transform="matrix(0.6819150664365046, 1.7617324796844135e-19, -1.7617324796844135e-19, 0.6819150664365046, 113.02805777565739, 16.14816913068975)"/><path d="M 473 310 L 473 304.70001220703125 L 473 299.3999938964844 L 467.70001220703125 299.3999938964844 L 467.70001220703125 304.70001220703125 L 467.70001220703125 310 Z" class="st10" style="fill: rgb(130, 84, 34);" transform="matrix(0.6819150664365046, 1.7617324796844135e-19, -1.7617324796844135e-19, 0.6819150664365046, 113.02805777565739, 16.14816913068975)"/><path d="M 462.5 294.100006 H 467.8 V 299.400006 H 462.5 V 294.100006 Z" class="st9" style="fill: rgb(36, 71, 86);" transform="matrix(0.6819150664365046, 1.7617324796844135e-19, -1.7617324796844135e-19, 0.6819150664365046, 113.02805777565739, 16.14816913068975)"/><path d="M 457.200012 288.899994 H 462.500012 V 294.199994 H 457.200012 V 288.899994 Z" class="st9" style="fill: rgb(36, 71, 86);" transform="matrix(0.6819150664365046, 1.7617324796844135e-19, -1.7617324796844135e-19, 0.6819150664365046, 113.02805777565739, 16.14816913068975)"/><path d="M 473 115.400002 H 478.3 V 299.400002 H 473 V 115.400002 Z" class="st9" style="fill: rgb(36, 71, 86);" transform="matrix(0.6819150664365046, 1.7617324796844135e-19, -1.7617324796844135e-19, 0.6819150664365046, 113.02805777565739, 16.14816913068975)"/><path d="M 399.299988 115.400002 H 404.599988 V 299.400002 H 399.299988 V 115.400002 Z" class="st9" style="fill: rgb(36, 71, 86);" transform="matrix(0.6819150664365046, 1.7617324796844135e-19, -1.7617324796844135e-19, 0.6819150664365046, 113.02805777565739, 16.14816913068975)"/><path d="M 446.600006 288.899994 H 451.900006 V 294.199994 H 446.600006 V 288.899994 Z" class="st9" style="fill: rgb(36, 71, 86);" transform="matrix(0.6819150664365046, 1.7617324796844135e-19, -1.7617324796844135e-19, 0.6819150664365046, 113.02805777565739, 16.14816913068975)"/><path d="M 430.8999938964844 362.70001220703125 L 430.8999938964844 357.3999938964844 L 430.8999938964844 352.1000061035156 L 436.1000061035156 352.1000061035156 L 436.1000061035156 357.3999938964844 L 436.1000061035156 362.70001220703125 Z" class="st9" style="fill: rgb(36, 71, 86);" transform="matrix(0.6819150664365046, 1.7617324796844135e-19, -1.7617324796844135e-19, 0.6819150664365046, 113.02805777565739, 16.14816913068975)"/><path d="M 425.6000061035156 352.1000061035156 L 425.6000061035156 346.79998779296875 L 425.6000061035156 341.6000061035156 L 430.8999938964844 341.6000061035156 L 430.8999938964844 346.79998779296875 L 430.8999938964844 352.1000061035156 Z" class="st9" style="fill: rgb(36, 71, 86);" transform="matrix(0.6819150664365046, 1.7617324796844135e-19, -1.7617324796844135e-19, 0.6819150664365046, 113.02805777565739, 16.14816913068975)"/><path d="M 420.29998779296875 341.6000061035156 L 420.29998779296875 336.29998779296875 L 420.29998779296875 331 L 425.6000061035156 331 L 425.6000061035156 336.29998779296875 L 425.6000061035156 341.6000061035156 Z" class="st9" style="fill: rgb(36, 71, 86);" transform="matrix(0.6819150664365046, 1.7617324796844135e-19, -1.7617324796844135e-19, 0.6819150664365046, 113.02805777565739, 16.14816913068975)"/><path d="M 415.1000061035156 331 L 415.1000061035156 325.79998779296875 L 415.1000061035156 320.5 L 420.29998779296875 320.5 L 420.29998779296875 325.79998779296875 L 420.29998779296875 331 Z" class="st10" style="fill: rgb(130, 84, 34);" transform="matrix(0.6819150664365046, 1.7617324796844135e-19, -1.7617324796844135e-19, 0.6819150664365046, 113.02805777565739, 16.14816913068975)"/><path d="M 409.79998779296875 320.5 L 409.79998779296875 315.20001220703125 L 409.79998779296875 310 L 415.1000061035156 310 L 415.1000061035156 315.20001220703125 L 415.1000061035156 320.5 Z" class="st10" style="fill: rgb(130, 84, 34);" transform="matrix(0.6819150664365046, 1.7617324796844135e-19, -1.7617324796844135e-19, 0.6819150664365046, 113.02805777565739, 16.14816913068975)"/><path d="M 404.5 310 L 404.5 304.70001220703125 L 404.5 299.3999938964844 L 409.79998779296875 299.3999938964844 L 409.79998779296875 304.70001220703125 L 409.79998779296875 310 Z" class="st10" style="fill: rgb(130, 84, 34);" transform="matrix(0.6819150664365046, 1.7617324796844135e-19, -1.7617324796844135e-19, 0.6819150664365046, 113.02805777565739, 16.14816913068975)"/><path d="M 409.799988 294.100006 H 415.099988 V 299.400006 H 409.799988 V 294.100006 Z" class="st9" style="fill: rgb(36, 71, 86);" transform="matrix(0.6819150664365046, 1.7617324796844135e-19, -1.7617324796844135e-19, 0.6819150664365046, 113.02805777565739, 16.14816913068975)"/><path d="M 404.5 299.399994 H 409.8 V 304.699994 H 404.5 V 299.399994 Z" class="st9" style="fill: rgb(0, 0, 0);" transform="matrix(0.7719092911290785, -3.5234653446377484e-19, 3.5234653446377484e-19, 0.7719092911290785, 76.62532358008346, -10.79604414588833)"/><path d="M 420.299988 331 H 425.599988 V 336.3 H 420.299988 V 331 Z" class="st10" style="fill: rgb(130, 84, 34);" transform="matrix(0.6819150664365046, 1.7617324796844135e-19, -1.7617324796844135e-19, 0.6819150664365046, 113.02805777565739, 16.14816913068975)"/><path d="M 451.899994 331 H 457.199994 V 336.3 H 451.899994 V 331 Z" class="st10" style="fill: rgb(130, 84, 34);" transform="matrix(0.6819150664365046, 1.7617324796844135e-19, -1.7617324796844135e-19, 0.6819150664365046, 113.02805777565739, 16.14816913068975)"/><path d="M 467.700012 299.399994 H 473.000012 V 304.699994 H 467.700012 V 299.399994 Z" class="st9" style="fill: rgb(36, 71, 86);" transform="matrix(0.6819150664365046, 1.7617324796844135e-19, -1.7617324796844135e-19, 0.6819150664365046, 113.02805777565739, 16.14816913068975)"/><path d="M 415.100006 288.899994 H 420.400006 V 294.199994 H 415.100006 V 288.899994 Z" class="st9" style="fill: rgb(36, 71, 86);" transform="matrix(0.6819150664365046, 1.7617324796844135e-19, -1.7617324796844135e-19, 0.6819150664365046, 113.02805777565739, 16.14816913068975)"/><path d="M 420.299988 115.400002 H 425.599988 V 288.799995 H 420.299988 V 115.400002 Z" class="st9" style="fill: rgb(36, 71, 86);" transform="matrix(0.6819150664365046, 1.7617324796844135e-19, -1.7617324796844135e-19, 0.6819150664365046, 113.02805777565739, 16.14816913068975)"/><path d="M 425.600006 288.899994 H 430.900006 V 294.199994 H 425.600006 V 288.899994 Z" class="st9" style="fill: rgb(36, 71, 86);" transform="matrix(0.6819150664365046, 1.7617324796844135e-19, -1.7617324796844135e-19, 0.6819150664365046, 113.02805777565739, 16.14816913068975)"/><path d="M 436.1000061035156 299.3999938964844 L 441.3999938964844 299.3999938964844 L 446.6000061035156 299.3999938964844 L 446.6000061035156 294.1000061035156 L 441.3999938964844 294.1000061035156 L 436.1000061035156 294.1000061035156 L 430.79998779296875 294.1000061035156 L 430.79998779296875 299.3999938964844 Z" class="st9" style="fill: rgb(36, 71, 86);" transform="matrix(0.6819150664365046, 1.7617324796844135e-19, -1.7617324796844135e-19, 0.6819150664365046, 113.02805777565739, 16.14816913068975)"/><path d="M 425.6000061035156 99.5999984741211 L 451.8999938964844 99.5999984741211 L 478.20001220703125 99.5999984741211 L 478.20001220703125 94.4000015258789 L 451.8999938964844 94.4000015258789 L 425.6000061035156 94.4000015258789 L 399.29998779296875 94.4000015258789 L 399.29998779296875 99.5999984741211 Z" class="st11" style="fill: rgb(67, 65, 66);" transform="matrix(0.6819150664365046, 1.7617324796844135e-19, -1.7617324796844135e-19, 0.6819150664365046, 113.02805777565739, 16.14816913068975)"/><path d="M 436.100006 362.700012 H 441.400006 V 368.000012 H 436.100006 V 362.700012 Z" class="st9" style="fill: rgb(36, 71, 86);" transform="matrix(0.6819150664365046, 1.7617324796844135e-19, -1.7617324796844135e-19, 0.6819150664365046, 113.02805777565739, 16.14816913068975)"/><path d="M 451.899994 115.400002 H 457.199994 V 288.799995 H 451.899994 V 115.400002 Z" class="st9" style="fill: rgb(36, 71, 86);" transform="matrix(0.6819150664365046, 1.7617324796844135e-19, -1.7617324796844135e-19, 0.6819150664365046, 113.02805777565739, 16.14816913068975)"/><path d="M 473 104.9000015258789 L 473 110.19999694824219 L 473 115.4000015258789 L 478.29998779296875 115.4000015258789 L 478.29998779296875 110.19999694824219 L 478.29998779296875 104.9000015258789 L 478.29998779296875 99.5999984741211 L 473 99.5999984741211 Z" class="st11" style="fill: rgb(67, 65, 66);" transform="matrix(0.6819150664365046, 1.7617324796844135e-19, -1.7617324796844135e-19, 0.6819150664365046, 113.02805777565739, 16.14816913068975)"/><path d="M 399.29998779296875 104.9000015258789 L 399.29998779296875 110.19999694824219 L 399.29998779296875 115.4000015258789 L 404.5 115.4000015258789 L 404.5 110.19999694824219 L 404.5 104.9000015258789 L 404.5 99.5999984741211 L 399.29998779296875 99.5999984741211 Z" class="st11" style="fill: rgb(67, 65, 66);" transform="matrix(0.6819150664365046, 1.7617324796844135e-19, -1.7617324796844135e-19, 0.6819150664365046, 113.02805777565739, 16.14816913068975)"/><g transform="matrix(0.6819150664365046, 1.7617324796844135e-19, -1.7617324796844135e-19, 0.6819150664365046, 113.02805777565739, 16.14816913068975)">
				<path d="M 478.29998779296875 94.4000015258789 L 478.29998779296875 89.0999984741211 L 478.29998779296875 83.80000305175781 L 478.29998779296875 78.5 L 478.29998779296875 73.30000305175781 L 473 73.30000305175781 L 473 78.5 L 473 83.80000305175781 L 473 89.0999984741211 L 473 94.4000015258789 Z" class="st12" style="fill: rgb(102, 46, 62);"/>
				<path d="M 467.70001220703125 62.70000076293945 L 467.70001220703125 68 L 467.70001220703125 73.30000305175781 L 473 73.30000305175781 L 473 68 L 473 62.70000076293945 L 473 57.5 L 467.70001220703125 57.5 Z" class="st12" style="fill: rgb(102, 46, 62);"/>
				<path d="M 454.6000061035156 46.900001525878906 L 446.6000061035156 46.900001525878906 L 438.70001220703125 46.900001525878906 L 438.70001220703125 52.20000076293945 L 446.6000061035156 52.20000076293945 L 454.6000061035156 52.20000076293945 L 462.5 52.20000076293945 L 462.5 46.900001525878906 Z" class="st12" style="fill: rgb(102, 46, 62);"/>
				<path d="M 462.5 52.200001 H 467.8 V 57.500001 H 462.5 V 52.200001 Z" class="st12" style="fill: rgb(102, 46, 62);"/>
			</g><path d="M 399.20001220703125 94.4000015258789 L 399.20001220703125 89.0999984741211 L 399.20001220703125 83.80000305175781 L 399.20001220703125 78.5 L 399.20001220703125 73.30000305175781 L 404.5 73.30000305175781 L 404.5 78.5 L 404.5 83.80000305175781 L 404.5 89.0999984741211 L 404.5 94.4000015258789 Z" class="st12" style="fill: rgb(102, 46, 62);" transform="matrix(0.6819150664365046, 1.7617324796844135e-19, -1.7617324796844135e-19, 0.6819150664365046, 113.02805777565739, 16.14816913068975)"/><path d="M 409.79998779296875 62.70000076293945 L 409.79998779296875 68 L 409.79998779296875 73.30000305175781 L 404.5 73.30000305175781 L 404.5 68 L 404.5 62.70000076293945 L 404.5 57.5 L 409.79998779296875 57.5 Z" class="st12" style="fill: rgb(102, 46, 62);" transform="matrix(0.6819150664365046, 1.7617324796844135e-19, -1.7617324796844135e-19, 0.6819150664365046, 113.02805777565739, 16.14816913068975)"/><path d="M 422.8999938964844 46.900001525878906 L 430.79998779296875 46.900001525878906 L 438.70001220703125 46.900001525878906 L 438.70001220703125 52.20000076293945 L 430.79998779296875 52.20000076293945 L 422.8999938964844 52.20000076293945 L 415 52.20000076293945 L 415 46.900001525878906 Z" class="st12" style="fill: rgb(102, 46, 62);" transform="matrix(0.6819150664365046, 1.7617324796844135e-19, -1.7617324796844135e-19, 0.6819150664365046, 113.02805777565739, 16.14816913068975)"/><path d="M 409.799988 52.200001 H 415.099988 V 57.500001 H 409.799988 V 52.200001 Z" class="st12" style="fill: rgb(102, 46, 62);" transform="matrix(0.6819150664365046, 1.7617324796844135e-19, -1.7617324796844135e-19, 0.6819150664365046, 113.02805777565739, 16.14816913068975)"/><path d="M 425.6000061035156 120.69999694824219 L 451.8999938964844 120.69999694824219 L 478.20001220703125 120.69999694824219 L 478.20001220703125 115.4000015258789 L 451.8999938964844 115.4000015258789 L 425.6000061035156 115.4000015258789 L 399.29998779296875 115.4000015258789 L 399.29998779296875 120.69999694824219 Z" class="st11" style="fill: rgb(67, 65, 66);" transform="matrix(0.6819150664365046, 1.7617324796844135e-19, -1.7617324796844135e-19, 0.6819150664365046, 113.02805777565739, 16.14816913068975)"/><path d="M 239.22132873535156 -37.94199752807617" style="fill: rgb(183, 94, 118); fill-opacity: 1; stroke: rgb(0, 0, 0); stroke-opacity: 1; stroke-width: 0; paint-order: fill;"/><path d="M 654.8001708984375 197.83251953125" style="fill: rgb(232, 184, 40); fill-opacity: 1; stroke: rgb(0, 0, 0); stroke-opacity: 1; stroke-width: 0; paint-order: fill;"/><path d="M 590.4343872070312 264.2971496582031" style="fill: rgb(232, 184, 40); fill-opacity: 1; stroke: rgb(0, 0, 0); stroke-opacity: 1; stroke-width: 0; paint-order: fill;"/><path d="M 463.1021728515625 227.91650390625 L 463.1021728515625 227.91650390625 L 461.0032958984375 203.42953491210938" style="fill: rgb(232, 184, 40); fill-opacity: 1; stroke: rgb(0, 0, 0); stroke-opacity: 1; stroke-width: 0; paint-order: fill;" transform="matrix(0.6819150664365046, 1.7617324796844135e-19, -1.7617324796844135e-19, 0.6819150664365046, 113.02805777565739, 16.14816913068975)"/><path d="M 463.1021728515625 204.82879638671875 L 463.1021728515625 204.82879638671875" style="fill: rgb(232, 184, 40); fill-opacity: 1; stroke: rgb(0, 0, 0); stroke-opacity: 1; stroke-width: 0; paint-order: fill;"/><path d="M 412.7289733886719 227.2168731689453" style="fill: rgb(232, 184, 40); fill-opacity: 1; stroke: rgb(0, 0, 0); stroke-opacity: 1; stroke-width: 0; paint-order: fill;"/><path d="M 541.8656616210938 370.4664001464844" style="fill: rgb(0, 0, 0); fill-opacity: 1; stroke: rgb(0, 0, 0); stroke-opacity: 1; stroke-width: 0; paint-order: fill;" transform="matrix(0.19834790324231735, 0, 0, 0.19834790324231735, 353.84923061594503, 269.5956392827775)"/><path d="M 495.0068664550781 406.3426513671875" style="fill: rgb(0, 0, 0); fill-opacity: 1; stroke: rgb(0, 0, 0); stroke-opacity: 1; stroke-width: 0; paint-order: fill;" transform="matrix(0.15319835767751158, 0, 0, 0.15319835767751158, 373.77823373117536, 298.1588931489829)"/><path d="M 451.0767822265625 383.64544677734375" style="fill: rgb(0, 0, 0); fill-opacity: 1; stroke: rgb(0, 0, 0); stroke-opacity: 1; stroke-width: 0; paint-order: fill;" transform="matrix(0.15319835767751158, 0, 0, 0.15319835767751158, 373.77823373117536, 298.1588931489829)"/><path d="M 465.72015380859375 371.1985778808594" style="fill: rgb(0, 0, 0); fill-opacity: 1; stroke: rgb(0, 0, 0); stroke-opacity: 1; stroke-width: 0; paint-order: fill;" transform="matrix(0.23413797946779713, 0, 0, 0.23413797946779713, 342.03400641638666, 261.6184942605054)"/><path d="M 456.9341125488281 368.2698974609375" style="fill: rgb(0, 0, 0); fill-opacity: 1; stroke: rgb(0, 0, 0); stroke-opacity: 1; stroke-width: 0; paint-order: fill;" transform="matrix(0.23413797946779713, 0, 0, 0.23413797946779713, 342.03400641638666, 261.6184942605054)"/><path d="M 738.8189697265625 308.9642639160156" style="fill: rgb(0, 0, 0); fill-opacity: 1; stroke: rgb(0, 0, 0); stroke-opacity: 1; stroke-width: 0; paint-order: fill;"/><path d="M 463.52362060546875 350.6978454589844" style="fill: rgb(0, 0, 0); fill-opacity: 1; stroke: rgb(0, 0, 0); stroke-opacity: 1; stroke-width: 0; paint-order: fill;"/><path d="M 547.4510498046875 413.1741027832031 L 469.7923889160156 370.4967956542969" style="fill: rgb(0, 0, 0); fill-opacity: 1; stroke: rgb(0, 0, 0); stroke-opacity: 1; stroke-width: 0; paint-order: fill;" transform="matrix(0.6819150664365046, 1.7617324796844135e-19, -1.7617324796844135e-19, 0.6819150664365046, 113.02805777565739, 16.14816913068975)"/></g><path d="M 287.5033874511719 152.8628692626953" style="fill: rgb(118, 169, 218); fill-opacity: 1; stroke: rgb(0, 0, 0); stroke-opacity: 1; stroke-width: 0; paint-order: fill;"/></g></svg>